<?xml version="1.0" encoding="utf-8"?>
<svg viewBox="0 0 300 87" xmlns="http://www.w3.org/2000/svg">
  <g id="svgGroup" stroke-linecap="round" fill-rule="evenodd" font-size="9pt" stroke="#000" stroke-width="0.25mm" fill="#000" style="stroke: rgb(0, 0, 0); stroke-width: 0.25mm; fill: rgb(0, 0, 0); transform-origin: 155.001px 32.5009px;" transform="matrix(0.64516043663, 0, 0, 0.645162582397, 38.767749175468, -4.078689109189)">
    <path d="M 55.417 9.237 L 53.126 18.82 A 23.976 23.976 0 0 0 44.549 10.591 A 23.488 23.488 0 0 0 32.652 7.501 A 29.019 29.019 0 0 0 32.64 7.501 A 24.067 24.067 0 0 0 23.827 9.093 A 22.667 22.667 0 0 0 20.244 10.869 Q 14.723 14.237 11.459 19.897 A 24.629 24.629 0 0 0 8.202 31.853 A 29.174 29.174 0 0 0 8.195 32.501 A 24.902 24.902 0 0 0 11.424 45.001 Q 14.654 50.695 20.174 54.098 A 23.051 23.051 0 0 0 32.115 57.497 A 27.511 27.511 0 0 0 32.57 57.501 A 29.074 29.074 0 0 0 38.638 56.882 A 26.531 26.531 0 0 0 39.966 56.563 A 25.608 25.608 0 0 0 45.464 54.413 A 23.499 23.499 0 0 0 46.39 53.89 L 46.39 37.501 L 29.167 37.501 L 29.167 30.417 L 54.029 30.417 L 54.029 57.917 Q 49.792 61.459 44.202 63.23 A 38.287 38.287 0 0 1 32.57 65.001 A 32.194 32.194 0 0 1 21.446 63.095 A 30.615 30.615 0 0 1 19.862 62.466 A 32.894 32.894 0 0 1 9.48 55.452 Q 5.001 50.973 2.501 45.105 A 31.718 31.718 0 0 1 0.003 32.921 A 36.086 36.086 0 0 1 0.001 32.501 A 31.51 31.51 0 0 1 2.36 20.31 A 30.544 30.544 0 0 1 2.536 19.897 A 33.005 33.005 0 0 1 9.549 9.549 A 32.894 32.894 0 0 1 19.931 2.536 A 31.751 31.751 0 0 1 32.189 0.004 A 36.306 36.306 0 0 1 32.64 0.001 A 31.777 31.777 0 0 1 45.14 2.466 A 33.204 33.204 0 0 1 55.417 9.237 Z M 142.431 63.751 L 121.945 63.751 L 121.945 1.251 L 142.431 1.251 A 43.577 43.577 0 0 1 149.66 1.821 A 31.463 31.463 0 0 1 157.188 4.029 A 32.174 32.174 0 0 1 163.878 7.962 A 27.377 27.377 0 0 1 167.57 11.39 A 31.022 31.022 0 0 1 173.681 21.494 A 32.6 32.6 0 0 1 175.612 30.271 A 30.02 30.02 0 0 1 175.695 32.501 A 31.597 31.597 0 0 1 174.041 42.473 A 36.122 36.122 0 0 1 173.681 43.508 A 31.022 31.022 0 0 1 167.57 53.612 A 28.618 28.618 0 0 1 160.194 59.471 A 34.847 34.847 0 0 1 157.188 60.973 A 31.463 31.463 0 0 1 149.66 63.18 A 43.577 43.577 0 0 1 142.431 63.751 Z M 219.029 27.57 L 219.029 22.084 L 225.973 22.084 L 225.973 63.751 L 219.029 63.751 L 219.029 58.265 Q 216.251 61.042 212.466 62.674 A 20.212 20.212 0 0 1 204.376 64.306 A 19.611 19.611 0 0 1 193.959 61.424 Q 189.237 58.542 186.424 53.681 Q 183.612 48.82 183.612 42.917 Q 183.612 37.015 186.424 32.154 Q 189.237 27.292 193.959 24.411 A 19.611 19.611 0 0 1 204.376 21.529 A 20.592 20.592 0 0 1 212.466 23.126 Q 216.251 24.723 219.029 27.57 Z M 303.056 27.57 L 303.056 22.084 L 310.001 22.084 L 310.001 63.751 L 303.056 63.751 L 303.056 58.265 Q 300.279 61.042 296.494 62.674 A 20.212 20.212 0 0 1 288.404 64.306 A 19.611 19.611 0 0 1 277.987 61.424 Q 273.265 58.542 270.452 53.681 Q 267.64 48.82 267.64 42.917 Q 267.64 37.015 270.452 32.154 Q 273.265 27.292 277.987 24.411 A 19.611 19.611 0 0 1 288.404 21.529 A 20.592 20.592 0 0 1 296.494 23.126 Q 300.279 24.723 303.056 27.57 Z M 100.973 63.751 L 93.473 63.751 L 93.473 28.334 L 84.029 28.334 L 84.029 22.084 L 93.681 22.084 L 93.681 8.195 L 100.765 8.195 L 100.765 22.084 L 111.112 22.084 L 111.112 28.334 L 100.973 28.334 L 100.973 63.751 Z M 251.667 63.751 L 244.167 63.751 L 244.167 28.334 L 234.723 28.334 L 234.723 22.084 L 244.376 22.084 L 244.376 8.195 L 251.459 8.195 L 251.459 22.084 L 261.806 22.084 L 261.806 28.334 L 251.667 28.334 L 251.667 63.751 Z M 129.862 8.334 L 129.862 56.667 L 141.598 56.667 Q 148.82 56.667 153.751 54.411 A 24.746 24.746 0 0 0 158.46 51.621 A 20.284 20.284 0 0 0 161.737 48.508 A 23.727 23.727 0 0 0 165.473 42.451 A 21.976 21.976 0 0 0 166.147 40.626 A 29.116 29.116 0 0 0 167.26 35.844 A 23.833 23.833 0 0 0 167.501 32.501 A 24.869 24.869 0 0 0 166.918 27.247 A 30.724 30.724 0 0 0 166.147 24.376 A 22.968 22.968 0 0 0 162.295 17.183 A 26.395 26.395 0 0 0 161.737 16.494 Q 158.681 12.848 153.751 10.591 Q 148.82 8.334 141.598 8.334 L 129.862 8.334 Z M 75.279 63.751 L 67.779 63.751 L 67.779 22.084 L 75.279 22.084 L 75.279 63.751 Z M 205.348 57.501 A 13.483 13.483 0 0 0 212.536 55.522 A 14.775 14.775 0 0 0 217.674 50.244 Q 219.584 46.945 219.584 42.917 A 14.641 14.641 0 0 0 218.487 37.232 A 14.058 14.058 0 0 0 217.674 35.591 Q 215.765 32.292 212.536 30.313 A 13.483 13.483 0 0 0 205.348 28.334 A 13.483 13.483 0 0 0 198.161 30.313 A 14.775 14.775 0 0 0 193.022 35.591 Q 191.112 38.89 191.112 42.917 A 14.641 14.641 0 0 0 192.209 48.603 A 14.058 14.058 0 0 0 193.022 50.244 Q 194.931 53.542 198.161 55.522 A 13.483 13.483 0 0 0 205.348 57.501 Z M 289.376 57.501 A 13.483 13.483 0 0 0 296.563 55.522 A 14.775 14.775 0 0 0 301.702 50.244 Q 303.612 46.945 303.612 42.917 A 14.641 14.641 0 0 0 302.515 37.232 A 14.058 14.058 0 0 0 301.702 35.591 Q 299.792 32.292 296.563 30.313 A 13.483 13.483 0 0 0 289.376 28.334 A 13.483 13.483 0 0 0 282.188 30.313 A 14.775 14.775 0 0 0 277.049 35.591 Q 275.14 38.89 275.14 42.917 A 14.641 14.641 0 0 0 276.236 48.603 A 14.058 14.058 0 0 0 277.049 50.244 Q 278.959 53.542 282.188 55.522 A 13.483 13.483 0 0 0 289.376 57.501 Z M 68.033 13.171 A 4.817 4.817 0 0 0 71.529 14.584 A 6.256 6.256 0 0 0 71.662 14.583 A 4.765 4.765 0 0 0 75.105 13.126 A 5.009 5.009 0 0 0 76.053 11.784 A 5.036 5.036 0 0 0 76.529 9.584 Q 76.529 7.431 75.105 6.008 A 4.716 4.716 0 0 0 73.38 4.894 A 5.339 5.339 0 0 0 71.529 4.584 A 4.882 4.882 0 0 0 67.987 6.008 Q 66.529 7.431 66.529 9.584 A 5.912 5.912 0 0 0 66.529 9.649 A 4.815 4.815 0 0 0 67.987 13.126 A 5.739 5.739 0 0 0 68.033 13.171 Z" vector-effect="non-scaling-stroke"/>
  </g>
  <g id="g-1" stroke-linecap="round" fill-rule="evenodd" font-size="9pt" stroke="#1b86b9" stroke-width="0.25mm" fill="#1b86b9" style="stroke:#1b86b9;stroke-width:0.25mm;fill:#1b86b9" transform="matrix(0.43124100565910345, 0, 0, 0.43124100565910345, 93.80000444948678, 50.00000074505807)">
    <path d="M 143.472 66.667 L 135.972 66.667 L 135.972 0 L 143.472 0 L 143.472 30.903 A 15.907 15.907 0 0 1 149.306 25.903 A 16.388 16.388 0 0 1 156.736 24.167 Q 161.181 24.167 164.965 26.354 A 16.308 16.308 0 0 1 170.459 31.61 A 19.78 19.78 0 0 1 171.111 32.674 A 17.309 17.309 0 0 1 173.02 37.882 Q 173.458 40.056 173.472 42.547 A 29.342 29.342 0 0 1 173.472 42.708 L 173.472 66.667 L 165.972 66.667 L 165.972 43.75 A 13.779 13.779 0 0 0 163.021 35.035 A 9.61 9.61 0 0 0 156.061 31.313 A 13.889 13.889 0 0 0 154.722 31.25 A 11.14 11.14 0 0 0 147.248 34.109 A 14.4 14.4 0 0 0 146.91 34.41 Q 143.472 37.569 143.472 43.542 L 143.472 66.667 Z M 7.986 66.667 L 0 66.667 L 26.458 2.083 L 26.597 2.083 L 53.056 66.667 L 44.653 66.667 L 37.292 48.125 L 15.417 48.125 L 7.986 66.667 Z M 289.861 44.861 L 289.861 47.917 L 262.639 47.917 Q 260.833 47.917 258.958 47.778 A 47.061 47.061 0 0 1 255.278 47.361 A 14.686 14.686 0 0 0 260.313 56.667 A 14.906 14.906 0 0 0 270.486 60.417 A 15.465 15.465 0 0 0 277.847 58.611 A 15.539 15.539 0 0 0 282.506 54.898 A 14.892 14.892 0 0 0 283.333 53.819 L 285.417 62.361 A 22.491 22.491 0 0 1 278.936 66.017 A 25.409 25.409 0 0 1 278.576 66.146 A 24.427 24.427 0 0 1 270.45 67.5 A 27.715 27.715 0 0 1 270.417 67.5 A 25.038 25.038 0 0 1 263.232 66.499 A 21.908 21.908 0 0 1 258.715 64.583 A 21.445 21.445 0 0 1 250.59 56.632 Q 247.639 51.597 247.639 45.417 A 21.055 21.055 0 0 1 249.377 36.851 A 20.433 20.433 0 0 1 250.486 34.687 Q 253.333 29.861 258.16 27.014 Q 262.986 24.167 268.819 24.167 A 20.872 20.872 0 0 1 279.375 26.91 A 21.087 21.087 0 0 1 287.014 34.306 Q 289.861 38.958 289.861 44.861 Z M 126.806 30 L 124.514 39.444 A 14.866 14.866 0 0 0 120.222 34.297 A 17.96 17.96 0 0 0 119.271 33.611 A 13.906 13.906 0 0 0 111.337 31.25 A 16.371 16.371 0 0 0 111.319 31.25 A 13.968 13.968 0 0 0 103.993 33.229 Q 100.694 35.208 98.75 38.507 A 14.155 14.155 0 0 0 96.806 45.818 A 16.277 16.277 0 0 0 96.806 45.833 A 14.214 14.214 0 0 0 98.75 53.125 Q 100.694 56.458 103.993 58.438 A 13.968 13.968 0 0 0 111.319 60.417 A 14.703 14.703 0 0 0 116.809 59.406 A 13.875 13.875 0 0 0 119.271 58.125 Q 122.778 55.833 124.514 52.222 L 126.806 61.667 A 23.62 23.62 0 0 1 120.595 65.594 A 26.953 26.953 0 0 1 119.861 65.903 A 22.354 22.354 0 0 1 111.67 67.498 A 25.371 25.371 0 0 1 111.389 67.5 A 22.048 22.048 0 0 1 102.683 65.79 A 21.243 21.243 0 0 1 100.278 64.583 A 22.364 22.364 0 0 1 92.292 56.736 A 20.643 20.643 0 0 1 89.306 45.833 A 20.643 20.643 0 0 1 92.292 34.931 A 22.364 22.364 0 0 1 100.278 27.083 A 21.568 21.568 0 0 1 111.008 24.17 A 25.392 25.392 0 0 1 111.389 24.167 A 22.58 22.58 0 0 1 119.114 25.478 A 21.528 21.528 0 0 1 119.861 25.764 A 24.337 24.337 0 0 1 125.627 29.028 A 22.406 22.406 0 0 1 126.806 30 Z M 243.056 25 L 222.014 68.75 L 200.972 25 L 209.514 25 L 217.986 43.056 Q 219.167 45.486 220.208 47.847 A 34.013 34.013 0 0 1 221.043 49.938 Q 221.645 51.591 222.222 53.611 A 66.169 66.169 0 0 1 223.008 51.201 Q 223.42 50.019 223.838 48.991 A 34.973 34.973 0 0 1 224.34 47.812 Q 225.417 45.417 226.528 43.056 L 235.069 25 L 243.056 25 Z M 68.472 66.667 L 60.972 66.667 L 60.972 25 L 67.917 25 L 67.917 32.639 A 16.858 16.858 0 0 1 73.819 26.771 A 15.358 15.358 0 0 1 79.177 24.854 A 20.481 20.481 0 0 1 82.569 24.583 L 84.444 32.083 Q 83.207 31.693 81.604 31.668 A 14.146 14.146 0 0 0 81.389 31.667 Q 75.556 31.667 72.014 35.382 Q 68.472 39.097 68.472 45.972 L 68.472 66.667 Z M 193.472 66.667 L 185.972 66.667 L 185.972 25 L 193.472 25 L 193.472 66.667 Z M 262.639 41.667 L 276.458 41.667 A 43.394 43.394 0 0 1 279.479 41.771 A 144.292 144.292 0 0 1 282.5 42.014 Q 281.528 37.153 277.639 33.993 Q 273.75 30.833 268.819 30.833 A 13.025 13.025 0 0 0 259.931 34.201 A 15.371 15.371 0 0 0 256.177 39.072 A 14.677 14.677 0 0 0 255.069 42.292 Q 258.819 41.667 262.639 41.667 Z M 22.986 29.167 L 18.056 41.528 L 34.653 41.528 L 29.722 29.167 A 302.323 302.323 0 0 1 27.986 24.514 A 46.589 46.589 0 0 1 27.361 22.668 Q 26.84 21.024 26.319 19.028 Q 25.486 22.222 24.722 24.479 A 89.26 89.26 0 0 1 23.459 27.962 A 102.696 102.696 0 0 1 22.986 29.167 Z M 186.226 16.087 A 4.817 4.817 0 0 0 189.722 17.5 A 6.256 6.256 0 0 0 189.856 17.499 A 4.765 4.765 0 0 0 193.299 16.042 A 5.009 5.009 0 0 0 194.246 14.7 A 5.036 5.036 0 0 0 194.722 12.5 Q 194.722 10.347 193.299 8.924 A 4.716 4.716 0 0 0 191.573 7.81 A 5.339 5.339 0 0 0 189.722 7.5 A 4.882 4.882 0 0 0 186.181 8.924 Q 184.722 10.347 184.722 12.5 A 5.912 5.912 0 0 0 184.723 12.565 A 4.815 4.815 0 0 0 186.181 16.042 A 5.739 5.739 0 0 0 186.226 16.087 Z" vector-effect="non-scaling-stroke"/>
  </g>
  <path fill="#ffffff" d="M 41.53 0.803 L 47.106 0.803 C 48.851 1.052 50.585 1.33 52.308 1.636 C 68.611 4.569 80.962 17.123 85.356 32.661 C 85.645 33.681 86.076 36.276 86.648 40.447 L 86.648 46.244 C 84.608 63.867 75.683 76.045 59.873 82.777 C 56.269 84.307 51.977 85.315 46.996 85.803 L 41.207 85.803 C 24.915 84.012 13.168 76.059 5.966 61.944 C 3.637 57.376 2.198 52.109 1.648 46.142 L 1.648 40.362 C 2.271 33.647 4.096 27.685 7.122 22.478 C 14.642 9.541 26.111 2.316 41.53 0.803 Z M 77.961 45.309 C 78.012 47.099 77.834 48.831 77.426 50.503 C 74.473 62.595 67.466 70.931 56.405 75.51 C 49.288 78.456 42.193 78.904 35.121 76.853 C 22.275 73.13 14.115 64.777 10.641 51.795 C 9.647 48.089 9.613 42.827 9.961 39.495 C 10.55 33.907 12.52 28.802 15.869 24.178 C 24.955 11.641 39.796 6.549 54.79 11.292 C 55.096 11.388 55.292 11.59 55.377 11.896 C 56.082 14.556 58.989 15.695 61.148 13.842 C 64.336 11.105 60.953 6.77 57.638 7.952 C 56.924 8.207 56.448 8.861 55.742 9.159 C 55.53 9.25 55.289 9.257 55.071 9.176 C 52.606 8.275 49.888 7.722 46.919 7.518 C 36.124 6.781 26.904 9.903 19.26 16.885 C 10.856 24.557 6.966 34.389 7.59 46.38 C 8.397 61.952 20.093 75.671 35.189 79.156 C 40.975 80.493 46.542 80.521 51.892 79.241 C 57.485 77.898 62.423 75.515 66.707 72.093 C 75.315 65.213 79.871 55.843 80.375 43.983 C 80.404 43.253 79.823 42.644 79.092 42.64 L 59.788 42.598 C 59.331 42.592 58.9 42.383 58.615 42.028 C 56.839 39.776 53.677 39.351 52.24 42.156 C 50.668 45.199 53.745 48.148 56.822 47.009 C 58.377 46.423 58.284 44.748 60.281 44.774 C 65.931 44.847 71.634 44.842 77.392 44.757 C 77.766 44.757 77.955 44.94 77.961 45.309 Z M 70.643 50.936 C 71.164 50.936 71.34 51.183 71.17 51.676 C 68.387 59.768 63.418 65.61 56.261 69.203 C 44.998 74.864 31.866 72.314 23.23 63.312 C 13.854 53.554 12.86 37.948 20.96 27.06 C 25.199 21.37 30.817 17.723 37.816 16.12 C 45.137 14.442 52.135 15.624 58.811 19.665 C 59.035 19.8 59.166 20.049 59.151 20.311 C 58.921 24.416 64.149 25.878 65.985 22.036 C 67.353 19.18 63.571 16.333 60.978 17.786 C 60.627 17.978 60.275 17.976 59.924 17.778 C 51.758 13.052 43.247 12.066 34.39 14.82 C 17.331 20.115 8.015 40.209 16.183 56.725 C 29.163 82.981 66.877 78.952 73.703 50.137 C 73.844 49.538 73.388 48.962 72.768 48.956 C 64.098 48.871 55.323 48.808 46.443 48.769 C 45.457 48.769 44.964 48.123 44.25 47.562 C 40.043 44.264 35.759 51.999 41.335 53.767 C 43.485 54.455 44.607 52.993 45.806 51.361 C 45.981 51.123 46.216 51.004 46.511 51.004 L 70.643 50.936 Z M 60.553 57.957 C 60.827 57.957 61.003 58.248 60.87 58.481 C 60.856 58.507 60.838 58.531 60.817 58.552 C 56.482 63.125 50.506 66.313 44.114 66.372 C 32.784 66.474 22.626 57.719 21.7 46.287 C 20.535 32.058 30.489 21.399 44.641 21.322 C 45.009 21.322 45.256 21.495 45.381 21.841 C 46.664 25.36 51.161 25.249 52.232 21.509 C 52.566 20.353 52.365 19.404 51.628 18.662 C 49.701 16.695 47.797 16.709 45.916 18.704 C 45.701 18.936 45.437 19.075 45.126 19.121 C 44.332 19.234 43.533 19.285 42.729 19.274 C 36.651 19.189 30.268 22.351 26.298 26.507 C 20.864 32.179 18.504 38.781 19.218 46.312 C 19.991 54.506 25.372 62.309 32.852 65.913 C 44.276 71.413 56.983 67.639 64.412 57.447 C 64.724 57.022 64.67 56.651 64.251 56.334 L 64.03 56.172 C 63.853 56.039 63.639 55.968 63.418 55.968 L 53.549 55.977 C 53.136 55.976 52.754 55.767 52.538 55.424 C 50.829 52.738 47.514 51.982 45.848 55.186 C 43.834 59.045 49.631 62.547 52.232 58.425 C 52.369 58.206 52.609 58.072 52.869 58.068 L 60.553 57.957 Z" transform="matrix(1, 0, 0, 1, 1.7763568394002505e-15, 0)"/>
  <path fill="#104c6b" d="M 77.392 44.757 C 71.634 44.842 65.931 44.847 60.281 44.774 C 58.284 44.748 58.377 46.423 56.822 47.009 C 53.745 48.148 50.668 45.199 52.24 42.156 C 53.677 39.351 56.839 39.776 58.615 42.028 C 58.9 42.383 59.331 42.592 59.788 42.598 L 79.092 42.64 C 79.823 42.644 80.404 43.253 80.375 43.983 C 79.871 55.843 75.315 65.213 66.707 72.093 C 62.423 75.515 57.485 77.898 51.892 79.241 C 46.542 80.521 40.975 80.493 35.189 79.156 C 20.093 75.671 8.397 61.952 7.59 46.38 C 6.966 34.389 10.856 24.557 19.26 16.885 C 26.904 9.903 36.124 6.781 46.919 7.518 C 49.888 7.722 52.606 8.275 55.071 9.176 C 55.289 9.257 55.53 9.25 55.742 9.159 C 56.448 8.861 56.924 8.207 57.638 7.952 C 60.953 6.77 64.336 11.105 61.148 13.842 C 58.989 15.695 56.082 14.556 55.377 11.896 C 55.292 11.59 55.096 11.388 54.79 11.292 C 39.796 6.549 24.955 11.641 15.869 24.178 C 12.52 28.802 10.55 33.907 9.961 39.495 C 9.613 42.827 9.647 48.089 10.641 51.795 C 14.115 64.777 22.275 73.13 35.121 76.853 C 42.193 78.904 49.288 78.456 56.405 75.51 C 67.466 70.931 74.473 62.595 77.426 50.503 C 77.834 48.831 78.012 47.099 77.961 45.309 C 77.955 44.94 77.766 44.757 77.392 44.757 Z M 60.681 11.335 C 60.681 10.339 59.874 9.533 58.879 9.533 C 57.883 9.533 57.077 10.339 57.077 11.335 C 57.077 12.33 57.883 13.137 58.879 13.137 C 59.874 13.137 60.681 12.33 60.681 11.335 Z M 57.315 43.779 C 57.315 42.784 56.508 41.977 55.513 41.977 C 54.517 41.977 53.711 42.784 53.711 43.779 C 53.711 44.774 54.517 45.581 55.513 45.581 C 56.508 45.581 57.315 44.774 57.315 43.779 Z" transform="matrix(1, 0, 0, 1, 1.7763568394002505e-15, 0)"/>
  <circle fill="#ffffff" cx="58.878" cy="11.334" r="1.802" transform="matrix(1, 0, 0, 1, 1.7763568394002505e-15, 0)"/>
  <path fill="#1484b7" d="M 70.643 50.936 L 46.511 51.004 C 46.216 51.004 45.981 51.123 45.806 51.361 C 44.607 52.993 43.485 54.455 41.335 53.767 C 35.759 51.999 40.043 44.264 44.25 47.562 C 44.964 48.123 45.457 48.769 46.443 48.769 C 55.323 48.808 64.098 48.871 72.768 48.956 C 73.388 48.962 73.844 49.538 73.703 50.137 C 66.877 78.952 29.163 82.981 16.183 56.725 C 8.015 40.209 17.331 20.115 34.39 14.82 C 43.247 12.066 51.758 13.052 59.924 17.778 C 60.275 17.976 60.627 17.978 60.978 17.786 C 63.571 16.333 67.353 19.18 65.985 22.036 C 64.149 25.878 58.921 24.416 59.151 20.311 C 59.166 20.049 59.035 19.8 58.811 19.665 C 52.135 15.624 45.137 14.442 37.816 16.12 C 30.817 17.723 25.199 21.37 20.96 27.06 C 12.86 37.948 13.854 53.554 23.23 63.312 C 31.866 72.314 44.998 74.864 56.261 69.203 C 63.418 65.61 68.387 59.768 71.17 51.676 C 71.34 51.183 71.164 50.936 70.643 50.936 Z M 64.506 20.702 C 64.506 19.687 63.684 18.866 62.67 18.866 C 61.655 18.866 60.834 19.687 60.834 20.702 C 60.834 21.716 61.655 22.538 62.67 22.538 C 63.684 22.538 64.506 21.716 64.506 20.702 Z M 44.089 50.333 C 44.089 49.332 43.278 48.522 42.278 48.522 C 41.278 48.522 40.468 49.332 40.468 50.333 C 40.468 51.332 41.278 52.143 42.278 52.143 C 43.278 52.143 44.089 51.332 44.089 50.333 Z" transform="matrix(1, 0, 0, 1, 1.7763568394002505e-15, 0)"/>
  <path fill="#104c6b" d="M 60.553 57.957 L 52.869 58.068 C 52.609 58.072 52.369 58.206 52.232 58.425 C 49.631 62.547 43.834 59.045 45.848 55.186 C 47.514 51.982 50.829 52.738 52.538 55.424 C 52.754 55.767 53.136 55.976 53.549 55.977 L 63.418 55.968 C 63.639 55.968 63.853 56.039 64.03 56.172 L 64.251 56.334 C 64.67 56.651 64.724 57.022 64.412 57.447 C 56.983 67.639 44.276 71.413 32.852 65.913 C 25.372 62.309 19.991 54.506 19.218 46.312 C 18.504 38.781 20.864 32.179 26.298 26.507 C 30.268 22.351 36.651 19.189 42.729 19.274 C 43.533 19.285 44.332 19.234 45.126 19.121 C 45.437 19.075 45.701 18.936 45.916 18.704 C 47.797 16.709 49.701 16.695 51.628 18.662 C 52.365 19.404 52.566 20.353 52.232 21.509 C 51.161 25.249 46.664 25.36 45.381 21.841 C 45.256 21.495 45.009 21.322 44.641 21.322 C 30.489 21.399 20.535 32.058 21.7 46.287 C 22.626 57.719 32.784 66.474 44.114 66.372 C 50.506 66.313 56.482 63.125 60.817 58.552 C 61.005 58.36 60.909 58.036 60.643 57.968 C 60.613 57.96 60.584 57.957 60.553 57.957 Z M 50.566 20.829 C 50.566 19.838 49.762 19.036 48.772 19.036 C 47.782 19.036 46.979 19.838 46.979 20.829 C 46.979 21.819 47.782 22.623 48.772 22.623 C 49.762 22.623 50.566 21.819 50.566 20.829 Z M 50.872 56.708 C 50.872 55.731 50.08 54.94 49.104 54.94 C 48.127 54.94 47.336 55.731 47.336 56.708 C 47.336 57.684 48.127 58.476 49.104 58.476 C 50.08 58.476 50.872 57.684 50.872 56.708 Z" transform="matrix(1, 0, 0, 1, 1.7763568394002505e-15, 0)"/>
  <circle fill="#ffffff" cx="62.67" cy="20.702" r="1.836" transform="matrix(1, 0, 0, 1, 1.7763568394002505e-15, 0)"/>
  <circle fill="#ffffff" cx="48.772" cy="20.829" r="1.793" transform="matrix(1, 0, 0, 1, 1.7763568394002505e-15, 0)"/>
  <circle fill="#ffffff" cx="55.512" cy="43.779" r="1.802" transform="matrix(1, 0, 0, 1, 1.7763568394002505e-15, 0)"/>
  <circle fill="#ffffff" cx="42.278" cy="50.333" r="1.811" transform="matrix(1, 0, 0, 1, 1.7763568394002505e-15, 0)"/>
  <circle fill="#ffffff" cx="49.104" cy="56.708" r="1.768" transform="matrix(1, 0, 0, 1, 1.7763568394002505e-15, 0)"/>
</svg>